# xmcd
#
# Track frame offsets:
#	182
#	16112
#	28895
#	41077
#	53857
#	69975
#	90585
#	105760
#	128422
#	146490
#	163747
#	181875
#	202127
#	222960
#	244655
#	262732
#	279875
#
# Disc length: 3949 seconds
#
# Revision: 0
# Processed by: cddbd v1.5.2PL0 Copyright (c) Steve Scherf et al.
# Submitted via: dBpowerAMP V4.0
#
DISCID=e00f6b11
DTITLE=Various Artist - Soul Devotion - Disc 2
DYEAR=1994
DGENRE=Soul
TTITLE0=Aretha Franklin - I Say A Little Prayer
TTITLE1=Al Green - Tired Of Being Alone
TTITLE2=Otis Reading - The Dock Of The Bay
TTITLE3=Percy Sledge - When A Man Loves A Woman
TTITLE4=Eddie Holman - Hey There Lonely Girl
TTITLE5=Earth, Wind and Fire - After The Love Has Gone
TTITLE6=Harold Melvin - The Bluenotes - If You Don't Know Me By Now
TTITLE7=Chi-Lites - Have You Seen Her
TTITLE8=Bill Withers - Lovely Day
TTITLE9=Womack and Womack - Teardrops
TTITLE10=Quartz ft. Dina Carroll - It's Too Late
TTITLE11=Odyssey - If You're Looking For A Way Out
TTITLE12=Rose Royce - Wishing On A Star
TTITLE13=Randy Crawford - One Day I'll Fly Away
TTITLE14=Atlantic Starr - Always
TTITLE15=Pointer Sisters - Slow Hand
TTITLE16=Sade - Your Love Is King
EXTD=
EXTT0=
EXTT1=
EXTT2=
EXTT3=
EXTT4=
EXTT5=
EXTT6=
EXTT7=
EXTT8=
EXTT9=
EXTT10=
EXTT11=
EXTT12=
EXTT13=
EXTT14=
EXTT15=
EXTT16=
PLAYORDER=
